<svg version="1.1" id="Layer_1" xmlns="http://www.w3.org/2000/svg" xmlns:xlink="http://www.w3.org/1999/xlink" x="0px" y="0px"
	 width="100%" viewBox="0 0 370 112" enable-background="new 0 0 370 112" xml:space="preserve">
<path fill="#F7F7F7" opacity="1.000000" stroke="none" 
	d="
M366.000000,113.000000 
	C246.310699,113.000000 126.621391,113.000000 6.416306,112.533638 
	C5.900530,77.140686 5.900530,42.214092 5.900530,7.253981 
	C126.076126,7.253981 245.837494,7.253981 365.810394,7.253981 
	C365.810394,9.961459 365.806580,12.276546 365.810974,14.591615 
	C365.873322,47.394409 365.936798,80.197205 366.000000,113.000000 
M95.499992,110.055038 
	C184.523712,110.055038 273.547424,110.055038 362.544434,110.055038 
	C362.544434,76.669487 362.544434,44.076694 362.544434,11.380037 
	C244.534027,11.380037 126.737228,11.380037 9.214285,11.380037 
	C9.214285,44.471252 9.214285,77.194038 9.214285,110.055038 
	C37.881683,110.055038 66.190834,110.055038 95.499992,110.055038 
z"/>
<path fill="#111111" opacity="1.000000" stroke="none" 
	d="
M366.333313,113.000000 
	C365.936798,80.197205 365.873322,47.394409 365.810974,14.591615 
	C365.806580,12.276546 365.810394,9.961459 365.810394,7.253981 
	C245.837494,7.253981 126.076126,7.253981 5.900530,7.253981 
	C5.900530,42.214092 5.900530,77.140686 5.950265,112.533638 
	C5.250000,113.000000 4.500000,113.000000 3.355884,112.531677 
	C2.990090,76.051033 3.018412,40.038708 3.509856,3.997608 
	C90.135704,3.967275 176.298431,3.958303 262.461151,3.967748 
	C297.625305,3.971603 332.789490,4.015371 368.087646,4.490747 
	C368.242645,34.162743 368.281891,63.384975 368.270935,92.607185 
	C368.268372,99.404823 368.094849,106.202400 368.000000,113.000000 
	C367.555542,113.000000 367.111115,113.000000 366.333313,113.000000 
z"/>
<path fill="#FEFEFE" opacity="1.000000" stroke="none" 
	d="
M367.953644,4.040980 
	C332.789490,4.015371 297.625305,3.971603 262.461151,3.967748 
	C176.298431,3.958303 90.135704,3.967275 3.148338,3.796717 
	C1.882464,3.749732 1.441232,3.874866 1.000000,4.000000 
	C1.048076,2.345619 0.370619,0.807387 3.502730,0.876796 
	C16.662933,1.168429 29.833334,1.000000 43.000000,1.000000 
	C151.000000,1.000000 259.000000,0.991591 366.999908,1.103125 
	C368.252747,1.104419 371.314819,-0.962960 370.711792,3.172189 
	C369.600281,3.576579 368.776978,3.808780 367.953644,4.040980 
z"/>
<path fill="#9E9E9E" opacity="1.000000" stroke="none" 
	d="
M368.087646,4.490747 
	C368.776978,3.808780 369.600281,3.576579 370.711792,3.672189 
	C371.000000,39.166668 371.017456,74.333382 370.926758,109.499809 
	C370.923645,110.717575 372.533142,113.471313 368.500000,113.000000 
	C368.094849,106.202400 368.268372,99.404823 368.270935,92.607185 
	C368.281891,63.384975 368.242645,34.162743 368.087646,4.490747 
z"/>
<path fill="#CCCCCC" opacity="1.000000" stroke="none" 
	d="
M1.000000,4.468657 
	C1.441232,3.874866 1.882464,3.749732 2.685215,3.825489 
	C3.018412,40.038708 2.990090,76.051033 2.980884,112.531677 
	C-0.058214,113.611549 1.039926,111.289352 1.033772,110.019630 
	C0.976645,98.233398 1.000000,86.446785 1.000000,74.660278 
	C1.000000,51.419289 1.000000,28.178303 1.000000,4.468657 
z"/>
<path fill="#010101" opacity="1.000000" stroke="none" 
	d="
M94.999985,110.055038 
	C66.190834,110.055038 37.881683,110.055038 9.214285,110.055038 
	C9.214285,77.194038 9.214285,44.471252 9.214285,11.380037 
	C126.737228,11.380037 244.534027,11.380037 362.544434,11.380037 
	C362.544434,44.076694 362.544434,76.669487 362.544434,110.055038 
	C273.547424,110.055038 184.523712,110.055038 94.999985,110.055038 
M85.003929,34.154091 
	C84.684929,32.103127 84.365936,30.052158 83.644981,27.308617 
	C81.960442,26.873264 80.281944,26.091337 78.590340,26.061897 
	C70.813789,25.926571 63.033592,25.998505 55.254704,26.001442 
	C44.270721,26.005592 44.270721,26.007612 42.988407,36.657158 
	C39.437626,36.807278 35.886848,36.957394 31.651081,36.996029 
	C31.190151,37.035931 30.729223,37.075836 29.432899,37.184868 
	C29.003452,37.632854 28.207193,38.074715 28.199593,38.529747 
	C28.085941,45.333084 28.010073,52.139202 28.117237,58.941643 
	C28.132471,59.908615 29.235285,60.823219 29.694996,61.826118 
	C30.525143,63.637146 31.833242,65.471756 31.912655,67.340248 
	C32.187374,73.804176 31.952955,80.288513 32.106613,86.760468 
	C32.124889,87.530182 33.340851,88.271454 34.930637,89.164116 
	C48.281231,89.075874 61.631821,88.987625 75.504745,89.073418 
	C75.678528,89.014420 75.852310,88.955414 76.875076,89.113007 
	C78.914513,89.067940 80.953941,89.022865 83.891174,89.220787 
	C87.613258,89.230606 91.335335,89.240425 95.472214,89.645668 
	C96.195549,89.231911 96.918884,88.818153 97.642212,88.404388 
	C97.164848,87.922226 96.687492,87.440056 96.076607,86.034996 
	C96.121895,79.037231 96.167175,72.039459 96.877724,64.890625 
	C100.262672,62.234646 101.361679,58.803314 101.052071,54.521915 
	C100.720268,49.933559 101.268021,45.275490 100.841103,40.702999 
	C100.658859,38.750988 98.978996,36.938797 97.058235,35.024845 
	C93.043114,35.012024 89.027985,34.999203 85.003929,34.154091 
M136.963364,54.030403 
	C132.883270,46.312874 125.060043,43.339741 117.290985,46.554131 
	C110.585518,49.328468 107.167885,57.007339 109.328079,64.445511 
	C111.391785,71.551468 118.162376,75.485268 126.173592,74.232979 
	C133.929077,73.020668 138.276993,67.098053 137.741440,58.249676 
	C132.674957,58.249676 127.596054,58.249676 122.340706,58.249676 
	C122.340706,59.864468 122.340706,61.252106 122.340706,63.051601 
	C125.283226,63.051601 128.004669,63.051601 130.909378,63.051601 
	C128.486038,68.180603 123.770264,69.978722 119.468040,67.753944 
	C115.289871,65.593315 113.792107,59.402355 116.405739,55.095974 
	C118.792381,51.163570 124.531670,49.701069 128.115829,52.844322 
	C130.919022,55.302689 133.645279,55.269699 136.963364,54.030403 
M285.332428,47.985653 
	C279.130096,47.039661 272.927795,46.093674 266.579651,45.125446 
	C266.579651,55.684788 266.579651,64.744316 266.579651,73.696869 
	C268.822113,73.696869 270.730133,73.696869 272.956848,73.696869 
	C272.956848,70.764221 272.956848,68.146042 272.956848,65.527855 
	C273.398041,65.169563 273.839233,64.811264 274.280426,64.452965 
	C275.817780,65.850868 277.942627,66.966187 278.777557,68.701958 
	C280.908478,73.131996 283.671906,75.428490 288.970123,73.484749 
	C287.240906,70.464371 285.543396,67.499321 283.874329,64.584030 
	C289.971863,58.819630 290.481110,54.569839 285.332428,47.985653 
M347.636505,69.042160 
	C353.965515,59.233101 350.000183,47.989162 339.281982,46.310471 
	C334.654877,45.585770 329.819763,46.189011 325.201080,46.189011 
	C325.201080,55.648537 325.201080,64.704697 325.201080,74.026474 
	C332.916138,73.518593 340.858765,75.928177 347.636505,69.042160 
M234.000717,47.674503 
	C234.000717,50.616982 234.000717,53.559464 234.000717,56.492043 
	C230.019775,56.492043 226.625076,56.492043 222.926025,56.492043 
	C222.926025,52.902912 222.926025,49.624249 222.926025,46.238373 
	C220.722504,46.238373 218.835236,46.238373 216.980835,46.238373 
	C216.980835,55.590820 216.980835,64.660568 216.980835,73.650391 
	C219.152557,73.650391 221.031647,73.650391 223.221802,73.650391 
	C223.221802,69.858475 223.221802,66.416855 223.221802,63.070175 
	C226.955017,63.070175 230.355011,63.070175 234.078781,63.070175 
	C234.078781,66.793709 234.078781,70.230782 234.078781,73.702423 
	C236.314743,73.702423 238.203049,73.702423 239.973724,73.702423 
	C239.973724,64.327942 239.973724,55.255322 239.973724,45.642975 
	C237.762177,46.047794 235.907013,46.387379 234.000717,47.674503 
M146.062012,68.381187 
	C146.062012,70.153397 146.062012,71.925606 146.062012,73.775360 
	C152.676987,73.775360 158.765823,73.775360 165.084381,73.775360 
	C164.958893,71.960190 164.850662,70.394630 164.706482,68.308960 
	C160.486328,68.308960 156.595276,68.308960 152.705963,68.308960 
	C152.705963,66.167603 152.705963,64.577614 152.705963,62.429016 
	C156.359848,62.429016 159.755859,62.429016 163.528915,62.429016 
	C163.401672,60.283836 163.309143,58.723869 163.202682,56.929230 
	C159.429718,56.929230 156.129364,56.929230 152.817413,56.929230 
	C152.817413,54.959393 152.817413,53.261497 152.817413,51.035248 
	C156.919922,51.035248 160.657913,51.035248 164.643677,51.035248 
	C164.539017,49.072453 164.463913,47.664089 164.387772,46.236244 
	C158.148392,46.236244 152.248856,46.236244 146.062012,46.236244 
	C146.062012,53.481895 146.062012,60.445095 146.062012,68.381187 
M312.450134,51.213154 
	C317.368530,51.728119 316.149048,48.795815 315.667419,46.186741 
	C309.563049,46.186741 303.799438,46.186741 297.884460,46.186741 
	C297.884460,55.471676 297.884460,64.525528 297.884460,73.723434 
	C304.120392,73.723434 310.166626,73.723434 316.575226,73.723434 
	C316.452362,71.890907 316.350128,70.365479 316.226776,68.525330 
	C311.936951,68.525330 308.163177,68.525330 304.321075,68.525330 
	C304.321075,66.292282 304.321075,64.418388 304.321075,62.320221 
	C307.966217,62.320221 311.270294,62.320221 314.784698,62.320221 
	C314.784698,60.527958 314.784698,58.964813 314.784698,57.021324 
	C311.155029,57.021324 307.729950,57.021324 304.289703,57.021324 
	C304.289703,54.924980 304.289703,53.215073 304.289703,51.213223 
	C306.893250,51.213223 309.197418,51.213223 312.450134,51.213154 
M187.868790,67.382904 
	C187.868790,62.307468 187.868790,57.232037 187.868790,52.191746 
	C191.228241,52.001770 193.953110,51.847679 196.540009,51.701389 
	C196.540009,49.562302 196.540009,47.958721 196.540009,46.205330 
	C188.099411,46.205330 179.895218,46.205330 171.661026,46.205330 
	C171.661026,48.224842 171.661026,49.953613 171.661026,52.184788 
	C174.693832,52.184788 177.416275,52.184788 180.532745,52.184788 
	C180.532745,59.744587 180.532745,66.800034 180.532745,73.651321 
	C183.197647,73.651321 185.429550,73.651321 187.868774,73.651321 
	C187.868774,71.626122 187.868774,69.984642 187.868790,67.382904 
M256.583984,55.558418 
	C256.583984,52.449123 256.583984,49.339828 256.583984,46.154667 
	C254.186630,46.154667 252.280197,46.154667 250.328293,46.154667 
	C250.328293,55.567936 250.328293,64.738548 250.328293,74.098801 
	C252.539886,73.995026 254.435379,73.906090 256.583923,73.805275 
	C256.583923,67.754890 256.583923,62.147408 256.583984,55.558418 
z"/>
<path fill="#F8A62A" opacity="1.000000" stroke="none" 
	d="
M30.268293,37.115738 
	C30.729223,37.075836 31.190151,37.035931 32.346542,37.122887 
	C34.163940,37.828590 35.273003,38.876728 36.409962,38.907921 
	C42.468281,39.074123 48.535397,39.056648 54.594330,38.901760 
	C55.411446,38.880871 56.199562,37.725708 57.374577,37.011452 
	C58.511688,36.882229 59.275333,36.837330 59.995636,36.893005 
	C59.952293,36.993584 59.950890,37.212711 60.044510,37.369965 
	C60.288006,37.728367 60.479313,37.875717 60.829597,38.213913 
	C61.054260,38.604382 61.161369,38.750214 61.408466,39.277542 
	C60.896095,45.461983 60.243740,51.264927 59.492035,57.149261 
	C59.244980,57.479069 59.284100,57.702507 59.648521,58.214821 
	C60.658348,59.558277 61.529682,60.587887 62.532997,61.870140 
	C63.114574,62.739716 63.564175,63.356647 64.006088,64.239830 
	C63.993038,64.861191 63.987671,65.216293 63.570530,65.655334 
	C60.945873,66.224960 58.732990,66.710640 56.262558,67.063644 
	C52.005806,66.284691 48.006596,65.638412 43.962257,64.689209 
	C43.206120,64.231438 42.498268,64.034203 41.779720,63.980785 
	C41.699055,63.974792 41.557865,64.782898 41.444740,65.213486 
	C42.293987,65.145744 43.143234,65.078003 44.059444,65.371635 
	C48.497742,67.125885 52.869072,68.518776 57.610409,69.916138 
	C58.987171,71.638855 59.993927,73.357109 61.086678,75.443619 
	C63.667908,77.498489 66.059303,78.265999 68.272980,74.802094 
	C69.594376,72.594284 70.642334,70.624908 71.620880,68.785965 
	C70.566948,67.880127 69.288727,66.781525 67.959503,65.379089 
	C67.494423,64.648933 67.080345,64.222610 66.753448,63.455940 
	C67.156555,62.239540 67.472488,61.363487 67.928223,60.379131 
	C68.245659,60.106571 68.393021,59.918583 68.799194,59.472733 
	C68.875969,56.550205 68.502533,53.862675 68.487946,51.173203 
	C68.464127,46.781364 64.946701,42.212704 69.269188,37.913170 
	C69.715614,37.648300 69.906921,37.429325 70.041214,37.055943 
	C70.041519,36.951626 69.954475,36.762016 70.414368,36.816719 
	C74.562622,36.832779 78.250992,36.794136 82.399651,36.854996 
	C87.558357,37.028740 92.256775,37.102985 96.963730,37.608696 
	C96.653580,41.489861 96.932182,45.139889 95.859970,48.336872 
	C94.613403,52.053738 92.836510,56.057545 90.090240,58.681221 
	C87.100929,61.537094 82.734726,62.951752 78.619621,65.002113 
	C77.616974,65.834610 76.963524,66.659737 76.310074,67.484856 
	C77.162964,67.347504 78.015862,67.210144 79.117416,67.343597 
	C82.578995,66.403740 85.791916,65.193085 89.435539,64.052460 
	C91.282356,63.954006 92.698471,63.785519 94.040260,63.720688 
	C93.965935,63.824337 93.962608,64.079414 93.966675,64.531631 
	C93.650566,69.708069 93.118988,74.430351 93.075699,79.157112 
	C93.039680,83.088600 91.215012,85.132072 87.659904,86.309433 
	C85.992691,86.861588 84.542130,88.067932 82.993378,88.977798 
	C80.953941,89.022865 78.914513,89.067940 76.638260,88.760208 
	C76.702454,87.760300 77.003464,87.113190 77.304482,86.466080 
	C76.516006,86.402542 75.727539,86.339005 74.939064,86.275475 
	C74.953514,87.150108 74.967964,88.024742 74.982414,88.899376 
	C61.631821,88.987625 48.281231,89.075874 34.393066,88.628494 
	C33.855495,80.031464 33.855495,71.970062 33.855495,63.703453 
	C36.099102,63.703453 37.725269,63.703453 39.351433,63.703453 
	C38.350605,62.709763 37.309208,62.103443 36.237194,62.043343 
	C31.022717,61.751015 29.819271,58.847607 30.152536,54.079655 
	C30.546045,48.449821 30.259830,42.772484 30.268293,37.115738 
z"/>
<path fill="#F6F6F6" opacity="1.000000" stroke="none" 
	d="
M136.871368,54.422260 
	C133.645279,55.269699 130.919022,55.302689 128.115829,52.844322 
	C124.531670,49.701069 118.792381,51.163570 116.405739,55.095974 
	C113.792107,59.402355 115.289871,65.593315 119.468040,67.753944 
	C123.770264,69.978722 128.486038,68.180603 130.909378,63.051601 
	C128.004669,63.051601 125.283226,63.051601 122.340706,63.051601 
	C122.340706,61.252106 122.340706,59.864468 122.340706,58.249676 
	C127.596054,58.249676 132.674957,58.249676 137.741440,58.249676 
	C138.276993,67.098053 133.929077,73.020668 126.173592,74.232979 
	C118.162376,75.485268 111.391785,71.551468 109.328079,64.445511 
	C107.167885,57.007339 110.585518,49.328468 117.290985,46.554131 
	C125.060043,43.339741 132.883270,46.312874 136.871368,54.422260 
z"/>
<path fill="#F2F2F2" opacity="1.000000" stroke="none" 
	d="
M285.641571,48.224293 
	C290.481110,54.569839 289.971863,58.819630 283.874329,64.584030 
	C285.543396,67.499321 287.240906,70.464371 288.970123,73.484749 
	C283.671906,75.428490 280.908478,73.131996 278.777557,68.701958 
	C277.942627,66.966187 275.817780,65.850868 274.280426,64.452965 
	C273.839233,64.811264 273.398041,65.169563 272.956848,65.527855 
	C272.956848,68.146042 272.956848,70.764221 272.956848,73.696869 
	C270.730133,73.696869 268.822113,73.696869 266.579651,73.696869 
	C266.579651,64.744316 266.579651,55.684788 266.579651,45.125446 
	C272.927795,46.093674 279.130096,47.039661 285.641571,48.224293 
M277.041687,51.313267 
	C275.765869,51.313267 274.490051,51.313267 273.157593,51.313267 
	C273.157593,54.486240 273.157593,57.176086 273.157593,59.991150 
	C276.805054,59.565388 281.007324,61.239796 282.118805,56.283474 
	C282.827881,53.121716 280.720337,51.798557 277.041687,51.313267 
z"/>
<path fill="#F9F9F9" opacity="1.000000" stroke="none" 
	d="
M347.379883,69.319885 
	C340.858765,75.928177 332.916138,73.518593 325.201080,74.026474 
	C325.201080,64.704697 325.201080,55.648537 325.201080,46.189011 
	C329.819763,46.189011 334.654877,45.585770 339.281982,46.310471 
	C350.000183,47.989162 353.965515,59.233101 347.379883,69.319885 
M331.157837,58.558926 
	C331.157837,61.656422 331.157837,64.753914 331.157837,67.886086 
	C336.032043,68.227631 340.893738,68.947968 342.932007,64.080879 
	C343.980743,61.576595 343.838654,57.711857 342.601013,55.300266 
	C340.371277,50.955479 335.745331,51.701275 331.157837,52.111561 
	C331.157837,54.043228 331.157837,55.824635 331.157837,58.558926 
z"/>
<path fill="#FDFDFD" opacity="1.000000" stroke="none" 
	d="
M234.026276,47.200733 
	C235.907013,46.387379 237.762177,46.047794 239.973724,45.642975 
	C239.973724,55.255322 239.973724,64.327942 239.973724,73.702423 
	C238.203049,73.702423 236.314743,73.702423 234.078781,73.702423 
	C234.078781,70.230782 234.078781,66.793709 234.078781,63.070175 
	C230.355011,63.070175 226.955017,63.070175 223.221802,63.070175 
	C223.221802,66.416855 223.221802,69.858475 223.221802,73.650391 
	C221.031647,73.650391 219.152557,73.650391 216.980835,73.650391 
	C216.980835,64.660568 216.980835,55.590820 216.980835,46.238373 
	C218.835236,46.238373 220.722504,46.238373 222.926025,46.238373 
	C222.926025,49.624249 222.926025,52.902912 222.926025,56.492043 
	C226.625076,56.492043 230.019775,56.492043 234.000717,56.492043 
	C234.000717,53.559464 234.000717,50.616982 234.026276,47.200733 
z"/>
<path fill="#F9F9F9" opacity="1.000000" stroke="none" 
	d="
M146.062012,67.894745 
	C146.062012,60.445095 146.062012,53.481895 146.062012,46.236244 
	C152.248856,46.236244 158.148392,46.236244 164.387772,46.236244 
	C164.463913,47.664089 164.539017,49.072453 164.643677,51.035248 
	C160.657913,51.035248 156.919922,51.035248 152.817413,51.035248 
	C152.817413,53.261497 152.817413,54.959393 152.817413,56.929230 
	C156.129364,56.929230 159.429718,56.929230 163.202682,56.929230 
	C163.309143,58.723869 163.401672,60.283836 163.528915,62.429016 
	C159.755859,62.429016 156.359848,62.429016 152.705963,62.429016 
	C152.705963,64.577614 152.705963,66.167603 152.705963,68.308960 
	C156.595276,68.308960 160.486328,68.308960 164.706482,68.308960 
	C164.850662,70.394630 164.958893,71.960190 165.084381,73.775360 
	C158.765823,73.775360 152.676987,73.775360 146.062012,73.775360 
	C146.062012,71.925606 146.062012,70.153397 146.062012,67.894745 
z"/>
<path fill="#FCFCFC" opacity="1.000000" stroke="none" 
	d="
M311.975861,51.213188 
	C309.197418,51.213223 306.893250,51.213223 304.289703,51.213223 
	C304.289703,53.215073 304.289703,54.924980 304.289703,57.021324 
	C307.729950,57.021324 311.155029,57.021324 314.784698,57.021324 
	C314.784698,58.964813 314.784698,60.527958 314.784698,62.320221 
	C311.270294,62.320221 307.966217,62.320221 304.321075,62.320221 
	C304.321075,64.418388 304.321075,66.292282 304.321075,68.525330 
	C308.163177,68.525330 311.936951,68.525330 316.226776,68.525330 
	C316.350128,70.365479 316.452362,71.890907 316.575226,73.723434 
	C310.166626,73.723434 304.120392,73.723434 297.884460,73.723434 
	C297.884460,64.525528 297.884460,55.471676 297.884460,46.186741 
	C303.799438,46.186741 309.563049,46.186741 315.667419,46.186741 
	C316.149048,48.795815 317.368530,51.728119 311.975861,51.213188 
z"/>
<path fill="#EBEBEB" opacity="1.000000" stroke="none" 
	d="
M187.868774,67.863029 
	C187.868774,69.984642 187.868774,71.626122 187.868774,73.651321 
	C185.429550,73.651321 183.197647,73.651321 180.532745,73.651321 
	C180.532745,66.800034 180.532745,59.744587 180.532745,52.184788 
	C177.416275,52.184788 174.693832,52.184788 171.661026,52.184788 
	C171.661026,49.953613 171.661026,48.224842 171.661026,46.205330 
	C179.895218,46.205330 188.099411,46.205330 196.540009,46.205330 
	C196.540009,47.958721 196.540009,49.562302 196.540009,51.701389 
	C193.953110,51.847679 191.228241,52.001770 187.868790,52.191746 
	C187.868790,57.232037 187.868790,62.307468 187.868774,67.863029 
z"/>
<path fill="#E8E8E8" opacity="1.000000" stroke="none" 
	d="
M256.583954,56.049171 
	C256.583923,62.147408 256.583923,67.754890 256.583923,73.805275 
	C254.435379,73.906090 252.539886,73.995026 250.328293,74.098801 
	C250.328293,64.738548 250.328293,55.567936 250.328293,46.154667 
	C252.280197,46.154667 254.186630,46.154667 256.583984,46.154667 
	C256.583984,49.339828 256.583984,52.449123 256.583954,56.049171 
z"/>
<path fill="#191919" opacity="1.000000" stroke="none" 
	d="
M43.869453,36.714165 
	C44.270721,26.007612 44.270721,26.005592 55.254704,26.001442 
	C63.033592,25.998505 70.813789,25.926571 78.590340,26.061897 
	C80.281944,26.091337 81.960442,26.873264 83.488304,27.659344 
	C82.552757,28.667818 81.773895,29.325565 80.526871,29.988979 
	C71.227524,29.999767 62.396328,30.000290 53.565147,30.011526 
	C47.006950,30.019871 47.006958,30.026064 46.788193,36.824692 
	C45.641315,36.848930 44.755383,36.781548 43.869453,36.714165 
z"/>
<path fill="#1D1912" opacity="1.000000" stroke="none" 
	d="
M29.850597,37.150303 
	C30.259830,42.772484 30.546045,48.449821 30.152536,54.079655 
	C29.819271,58.847607 31.022717,61.751015 36.237194,62.043343 
	C37.309208,62.103443 38.350605,62.709763 39.351433,63.703453 
	C37.725269,63.703453 36.099102,63.703453 33.855495,63.703453 
	C33.855495,71.970062 33.855495,80.031464 33.928570,88.559387 
	C33.340851,88.271454 32.124889,87.530182 32.106613,86.760468 
	C31.952955,80.288513 32.187374,73.804176 31.912655,67.340248 
	C31.833242,65.471756 30.525143,63.637146 29.694996,61.826118 
	C29.235285,60.823219 28.132471,59.908615 28.117237,58.941643 
	C28.010073,52.139202 28.085941,45.333084 28.199593,38.529747 
	C28.207193,38.074715 29.003452,37.632854 29.850597,37.150303 
z"/>
<path fill="#D08B25" opacity="1.000000" stroke="none" 
	d="
M83.442276,89.099289 
	C84.542130,88.067932 85.992691,86.861588 87.659904,86.309433 
	C91.215012,85.132072 93.039680,83.088600 93.075699,79.157112 
	C93.118988,74.430351 93.650566,69.708069 94.304054,64.393631 
	C95.162399,64.216179 95.687431,64.628937 96.212456,65.041695 
	C96.167175,72.039459 96.121895,79.037231 96.006012,86.787216 
	C95.642746,88.109703 95.350082,88.679970 95.057419,89.250244 
	C91.335335,89.240425 87.613258,89.230606 83.442276,89.099289 
z"/>
<path fill="#F6A429" opacity="1.000000" stroke="none" 
	d="
M43.428932,36.685661 
	C44.755383,36.781548 45.641315,36.848930 47.234497,36.889996 
	C50.961533,36.941040 53.981319,37.018406 57.001106,37.095772 
	C56.199562,37.725708 55.411446,38.880871 54.594330,38.901760 
	C48.535397,39.056648 42.468281,39.074123 36.409962,38.907921 
	C35.273003,38.876728 34.163940,37.828590 32.689037,37.178627 
	C35.886848,36.957394 39.437626,36.807278 43.428932,36.685661 
z"/>
<path fill="#1D1912" opacity="1.000000" stroke="none" 
	d="
M96.545090,64.966156 
	C95.687431,64.628937 95.162399,64.216179 94.299988,63.941418 
	C93.962608,64.079414 93.965935,63.824337 94.011749,63.470978 
	C94.041527,62.782948 94.025497,62.448273 94.360458,61.967552 
	C96.093826,60.826817 98.661552,59.840607 98.668732,58.836082 
	C98.720436,51.605495 98.252960,44.371193 97.962677,36.791981 
	C97.976700,35.984951 97.978180,35.524014 97.979660,35.063072 
	C98.978996,36.938797 100.658859,38.750988 100.841103,40.702999 
	C101.268021,45.275490 100.720268,49.933559 101.052071,54.521915 
	C101.361679,58.803314 100.262672,62.234646 96.545090,64.966156 
z"/>
<path fill="#252019" opacity="1.000000" stroke="none" 
	d="
M97.518951,35.043961 
	C97.978180,35.524014 97.976700,35.984951 97.711975,36.751572 
	C97.284210,37.097240 97.119705,37.137234 96.955193,37.177231 
	C92.256775,37.102985 87.558357,37.028740 82.393204,36.646301 
	C81.926460,36.338108 81.945549,35.920933 82.271103,35.918274 
	C83.402061,35.605869 84.207458,35.296127 85.012863,34.986382 
	C89.027985,34.999203 93.043114,35.012024 97.518951,35.043961 
z"/>
<path fill="#111111" opacity="1.000000" stroke="none" 
	d="
M85.008392,34.570236 
	C84.207458,35.296127 83.402061,35.605869 82.284355,35.523109 
	C81.646378,33.414845 81.320702,31.699080 80.995026,29.983315 
	C81.773895,29.325565 82.552757,28.667818 83.689285,28.005632 
	C84.365936,30.052158 84.684929,32.103127 85.008392,34.570236 
z"/>
<path fill="#F6A429" opacity="1.000000" stroke="none" 
	d="
M75.243576,88.986397 
	C74.967964,88.024742 74.953514,87.150108 74.939064,86.275475 
	C75.727539,86.339005 76.516006,86.402542 77.304482,86.466080 
	C77.003464,87.113190 76.702454,87.760300 76.213760,88.651917 
	C75.852310,88.955414 75.678528,89.014420 75.243576,88.986397 
z"/>
<path fill="#1D1912" opacity="1.000000" stroke="none" 
	d="
M95.264816,89.447952 
	C95.350082,88.679970 95.642746,88.109703 96.072769,87.248657 
	C96.687492,87.440056 97.164848,87.922226 97.642212,88.404388 
	C96.918884,88.818153 96.195549,89.231911 95.264816,89.447952 
z"/>
<path fill="#000000" opacity="1.000000" stroke="none" 
	d="
M80.526871,29.988979 
	C81.320702,31.699080 81.646378,33.414845 81.958801,35.525772 
	C81.945549,35.920933 81.926460,36.338108 81.932907,36.546803 
	C78.250992,36.794136 74.562622,36.832779 70.333694,36.441925 
	C66.424721,34.808857 63.040569,33.408615 60.038979,36.792427 
	C59.275333,36.837330 58.511688,36.882229 57.374573,37.011452 
	C53.981319,37.018406 50.961533,36.941040 47.495445,36.798370 
	C47.006958,30.026064 47.006950,30.019871 53.565147,30.011526 
	C62.396328,30.000290 71.227524,29.999767 80.526871,29.988979 
z"/>
<path fill="#CF8A25" opacity="1.000000" stroke="none" 
	d="
M96.963730,37.608696 
	C97.119705,37.137234 97.284210,37.097240 97.699432,37.097656 
	C98.252960,44.371193 98.720436,51.605495 98.668732,58.836082 
	C98.661552,59.840607 96.093826,60.826817 94.005814,61.959663 
	C91.868401,62.726021 90.436623,63.354229 89.004837,63.982433 
	C85.791916,65.193085 82.578995,66.403740 79.154510,66.997299 
	C78.951569,65.918381 78.960197,65.456558 78.968819,64.994743 
	C82.734726,62.951752 87.100929,61.537094 90.090240,58.681221 
	C92.836510,56.057545 94.613403,52.053738 95.859970,48.336872 
	C96.932182,45.139889 96.653580,41.489861 96.963730,37.608696 
z"/>
<path fill="#272016" opacity="1.000000" stroke="none" 
	d="
M56.520107,67.196320 
	C58.732990,66.710640 60.945873,66.224960 63.965958,65.744469 
	C65.852280,65.727409 66.931389,65.705162 68.010506,65.682915 
	C69.288727,66.781525 70.566948,67.880127 71.620880,68.785965 
	C70.642334,70.624908 69.594376,72.594284 67.837639,74.750160 
	C65.086128,74.982895 63.043407,75.029121 61.000683,75.075348 
	C59.993927,73.357109 58.987171,71.638855 57.452503,69.475693 
	C56.789761,68.419289 56.654934,67.807800 56.520107,67.196320 
z"/>
<path fill="#3C3429" opacity="1.000000" stroke="none" 
	d="
M59.591389,57.067871 
	C60.243740,51.264927 60.896095,45.461983 61.671890,39.027168 
	C64.240654,37.961765 66.685974,37.528233 69.100052,37.322250 
	C69.068810,37.549793 69.071404,38.009151 69.071404,38.009151 
	C64.946701,42.212704 68.464127,46.781364 68.487946,51.173203 
	C68.502533,53.862675 68.875969,56.550205 68.657761,59.261429 
	C68.113174,59.158894 67.999077,59.033535 67.908661,58.504349 
	C66.969788,51.568928 66.007210,45.037338 64.994850,38.167900 
	C64.750496,38.415154 63.623444,39.017719 63.499565,39.782734 
	C63.141441,41.994247 62.949272,44.289692 63.123161,46.518547 
	C63.497341,51.314667 59.809143,56.103138 62.933388,61.057373 
	C62.632439,61.363518 62.516727,61.490509 62.401020,61.617496 
	C61.529682,60.587887 60.658348,59.558277 59.732792,58.012856 
	C59.678574,57.497040 59.591389,57.067871 59.591389,57.067871 
z"/>
<path fill="#F3A229" opacity="1.000000" stroke="none" 
	d="
M56.262558,67.063644 
	C56.654934,67.807800 56.789761,68.419289 57.082497,69.471214 
	C52.869072,68.518776 48.497742,67.125885 44.063091,65.366646 
	C43.999771,65.000290 44.007389,64.992134 44.007389,64.992134 
	C48.006596,65.638412 52.005806,66.284691 56.262558,67.063644 
z"/>
<path fill="#191919" opacity="1.000000" stroke="none" 
	d="
M69.131302,37.094704 
	C66.685974,37.528233 64.240654,37.961765 61.531906,38.645668 
	C61.161369,38.750214 61.054260,38.604382 60.869225,37.977039 
	C60.589794,37.167667 60.309658,37.073395 59.950890,37.212711 
	C59.950890,37.212711 59.952293,36.993584 59.995636,36.893005 
	C63.040569,33.408615 66.424721,34.808857 69.873810,36.387222 
	C69.954475,36.762016 70.041519,36.951626 69.816963,36.995850 
	C69.592407,37.040077 69.131302,37.094704 69.131302,37.094704 
z"/>
<path fill="#F6A429" opacity="1.000000" stroke="none" 
	d="
M61.086678,75.443619 
	C63.043407,75.029121 65.086128,74.982895 67.564194,74.988602 
	C66.059303,78.265999 63.667908,77.498489 61.086678,75.443619 
z"/>
<path fill="#3C3429" opacity="1.000000" stroke="none" 
	d="
M64.013771,63.973576 
	C63.564175,63.356647 63.114574,62.739716 62.532997,61.870140 
	C62.516727,61.490509 62.632439,61.363518 63.268478,61.109619 
	C64.833076,60.629047 65.877350,60.275387 67.125366,60.083015 
	C67.482208,60.325344 67.635315,60.406387 67.788422,60.487434 
	C67.472488,61.363487 67.156555,62.239540 66.421936,63.412445 
	C65.340088,63.797390 64.676926,63.885483 64.013771,63.973576 
z"/>
<path fill="#F3A229" opacity="1.000000" stroke="none" 
	d="
M78.619621,65.002113 
	C78.960197,65.456558 78.951569,65.918381 78.905846,66.726494 
	C78.015862,67.210144 77.162964,67.347504 76.310074,67.484856 
	C76.963524,66.659737 77.616974,65.834610 78.619621,65.002113 
z"/>
<path fill="#F3A229" opacity="1.000000" stroke="none" 
	d="
M64.006088,64.239830 
	C64.676926,63.885483 65.340088,63.797390 66.334755,63.752792 
	C67.080345,64.222610 67.494423,64.648933 67.959503,65.379089 
	C66.931389,65.705162 65.852280,65.727409 64.377731,65.660522 
	C63.987671,65.216293 63.993038,64.861191 64.006088,64.239830 
z"/>
<path fill="#281F13" opacity="1.000000" stroke="none" 
	d="
M89.435539,64.052460 
	C90.436623,63.354229 91.868401,62.726021 93.654831,62.105705 
	C94.025497,62.448273 94.041527,62.782948 94.086075,63.367329 
	C92.698471,63.785519 91.282356,63.954006 89.435539,64.052460 
z"/>
<path fill="#F3A229" opacity="1.000000" stroke="none" 
	d="
M43.996124,65.005280 
	C43.143234,65.078003 42.293987,65.145744 41.444740,65.213486 
	C41.557865,64.782898 41.699055,63.974792 41.779720,63.980785 
	C42.498268,64.034203 43.206120,64.231438 43.962257,64.689209 
	C44.007389,64.992134 43.999771,65.000290 43.996124,65.005280 
z"/>
<path fill="#F3A229" opacity="1.000000" stroke="none" 
	d="
M60.044510,37.369965 
	C60.309658,37.073395 60.589794,37.167667 60.751678,37.732407 
	C60.479313,37.875717 60.288006,37.728367 60.044510,37.369965 
z"/>
<path fill="#3C3429" opacity="1.000000" stroke="none" 
	d="
M68.368698,59.495560 
	C68.393021,59.918583 68.245659,60.106571 67.928230,60.379131 
	C67.635315,60.406387 67.482208,60.325344 67.244385,59.876953 
	C67.343277,59.238987 67.585037,59.038509 67.884972,58.908173 
	C67.999077,59.033535 68.113174,59.158894 68.368698,59.495560 
z"/>
<path fill="#F3A229" opacity="1.000000" stroke="none" 
	d="
M59.492035,57.149261 
	C59.591389,57.067871 59.678574,57.497040 59.594307,57.699009 
	C59.284100,57.702507 59.244980,57.479069 59.492035,57.149261 
z"/>
<path fill="#F3A229" opacity="1.000000" stroke="none" 
	d="
M69.100052,37.322250 
	C69.131302,37.094704 69.592407,37.040077 69.816658,37.100166 
	C69.906921,37.429325 69.715614,37.648300 69.269188,37.913170 
	C69.071404,38.009151 69.068810,37.549793 69.100052,37.322250 
z"/>
<path fill="#0E0E0E" opacity="1.000000" stroke="none" 
	d="
M277.462585,51.355171 
	C280.720337,51.798557 282.827881,53.121716 282.118805,56.283474 
	C281.007324,61.239796 276.805054,59.565388 273.157593,59.991150 
	C273.157593,57.176086 273.157593,54.486240 273.157593,51.313267 
	C274.490051,51.313267 275.765869,51.313267 277.462585,51.355171 
z"/>
<path fill="#080808" opacity="1.000000" stroke="none" 
	d="
M331.157837,58.082481 
	C331.157837,55.824635 331.157837,54.043228 331.157837,52.111561 
	C335.745331,51.701275 340.371277,50.955479 342.601013,55.300266 
	C343.838654,57.711857 343.980743,61.576595 342.932007,64.080879 
	C340.893738,68.947968 336.032043,68.227631 331.157837,67.886086 
	C331.157837,64.753914 331.157837,61.656422 331.157837,58.082481 
z"/>
<path fill="#020202" opacity="1.000000" stroke="none" 
	d="
M67.908661,58.504349 
	C67.585037,59.038509 67.343277,59.238987 67.040649,59.715668 
	C65.877350,60.275387 64.833076,60.629047 63.453712,60.930462 
	C59.809143,56.103138 63.497341,51.314667 63.123161,46.518547 
	C62.949272,44.289692 63.141441,41.994247 63.499565,39.782734 
	C63.623444,39.017719 64.750496,38.415154 64.994850,38.167900 
	C66.007210,45.037338 66.969788,51.568928 67.908661,58.504349 
z"/>
</svg>