<svg version="1.1" id="Layer_1" xmlns="http://www.w3.org/2000/svg" xmlns:xlink="http://www.w3.org/1999/xlink" x="0px" y="0px"
	 width="100%" viewBox="0 0 303 106" enable-background="new 0 0 303 106" xml:space="preserve">
<path fill="#FDFDFD" opacity="1.000000" stroke="none" 
	d="
M192.000000,107.000000 
	C128.000015,107.000000 64.500038,107.000000 1.000043,107.000000 
	C1.000028,71.666695 1.000028,36.333393 1.000014,1.000044 
	C51.499954,1.000000 101.999908,1.000000 152.499863,1.000000 
	C202.999847,1.000000 253.499832,1.000000 303.999878,1.000000 
	C303.999908,36.333263 303.999908,71.666527 303.999939,106.999893 
	C266.833344,107.000000 229.666672,107.000000 192.000000,107.000000 
M176.094147,53.777390 
	C175.764069,53.829025 175.433975,53.880657 174.965469,53.234932 
	C173.298706,47.749451 169.000381,44.851974 163.879730,44.539093 
	C159.300415,44.259289 154.607117,45.845173 149.744034,46.644005 
	C149.744034,38.857906 149.744034,30.247503 149.744034,21.500879 
	C145.703857,21.500879 141.972458,21.500879 138.261139,21.500879 
	C138.261139,41.155968 138.261139,60.528748 138.261139,79.645187 
	C142.368607,79.645187 146.106049,79.645187 149.954010,79.645187 
	C149.954010,73.629265 149.929459,67.972755 149.961014,62.316563 
	C149.991531,56.846947 152.844315,53.335186 157.142410,53.387806 
	C161.088470,53.436115 163.249329,56.389214 163.296677,61.979851 
	C163.347000,67.921707 163.307983,73.864311 163.307983,79.901611 
	C167.583450,79.901611 171.239807,79.901611 175.632553,79.979820 
	C176.125183,79.951103 176.617813,79.922394 178.014328,80.002014 
	C181.460815,80.002014 184.907303,80.002014 188.487457,80.002014 
	C188.487457,68.127251 188.487457,56.737625 188.487457,45.195084 
	C184.461639,45.195084 180.697968,45.195084 176.611786,45.195084 
	C176.611786,48.197796 176.611786,50.999153 176.094147,53.777390 
M251.698792,52.703983 
	C248.214127,50.073246 245.077881,46.582275 241.168945,44.999016 
	C234.035126,42.109566 227.264404,44.626762 221.097534,49.261429 
	C220.790848,42.692993 210.527588,42.001873 203.069321,48.944935 
	C202.847519,47.555813 202.662323,46.396004 202.475082,45.223419 
	C198.482407,45.223419 194.724548,45.223419 190.875336,45.223419 
	C190.875336,56.893208 190.875336,68.325470 190.875336,79.738953 
	C194.864914,79.738953 198.625137,79.738953 202.751343,79.738953 
	C202.751343,74.848473 202.747879,70.219772 202.752045,65.591072 
	C202.761002,55.649792 204.977676,53.704372 215.252350,55.791492 
	C215.842590,55.822994 216.432816,55.854496 216.758255,56.796547 
	C214.413208,66.295929 217.509537,74.042419 225.458511,78.563133 
	C233.965042,83.400948 244.206085,81.360680 252.111801,73.892723 
	C256.720886,76.347237 260.783936,79.827789 265.282837,80.534904 
	C269.745117,81.236259 274.646484,79.144226 279.347107,78.278801 
	C282.363770,82.354782 287.146912,78.879288 291.180176,80.186729 
	C291.180176,60.188843 291.180176,40.809673 291.180176,21.439823 
	C287.183319,21.439823 283.569946,21.439823 279.282837,21.439823 
	C279.282837,30.124762 279.282837,38.600842 279.282837,47.379215 
	C267.112183,41.478394 258.496368,43.552711 252.533035,53.497498 
	C252.342712,53.451515 252.152405,53.405533 251.698792,52.703983 
M92.108818,43.895412 
	C92.103241,39.738323 92.041794,35.580318 92.110291,31.424448 
	C92.162285,28.270229 90.624947,26.845526 87.575829,26.833179 
	C83.751709,26.817694 79.927605,26.796799 76.103470,26.786015 
	C67.574112,26.761959 68.003609,27.455351 68.278381,19.086992 
	C68.408905,15.111649 66.844315,13.760063 62.994999,13.953102 
	C58.350723,14.186008 53.685844,14.007604 49.029881,14.007946 
	C40.963993,14.008539 40.772888,14.010883 40.862076,22.073149 
	C40.904259,25.886555 39.501614,27.023350 35.890892,26.842718 
	C31.246887,26.610395 26.581659,26.830757 21.926123,26.791304 
	C18.414944,26.761549 16.774391,28.293871 16.880909,31.935472 
	C17.031559,37.085865 16.781061,42.250210 17.014465,47.394409 
	C17.072784,48.679733 18.326485,49.910820 18.866699,51.978085 
	C15.010934,58.287296 15.547356,64.862541 17.187229,72.357758 
	C16.602198,77.011879 16.091984,81.519363 23.125931,81.252823 
	C23.816580,81.226654 24.584970,83.251961 24.815948,84.808708 
	C22.328884,86.035820 19.841818,87.262932 17.367077,88.483963 
	C20.968357,96.407654 29.647173,100.136261 40.250546,98.537384 
	C51.077835,96.904732 55.936115,91.900101 58.059658,81.081024 
	C61.367420,80.786514 64.675179,80.492012 68.780151,80.269424 
	C71.496346,80.560059 74.212532,80.850685 77.139565,81.805450 
	C79.520378,86.622833 81.167732,86.817535 84.027840,82.821518 
	C84.631599,81.977974 85.973976,81.152542 86.955002,81.176582 
	C91.587227,81.290062 92.600021,78.824463 92.146286,74.247009 
	C91.958069,72.959732 91.769852,71.672455 91.918137,69.565193 
	C91.994728,67.806854 92.071312,66.048523 92.744141,64.153450 
	C93.146545,64.092331 93.548950,64.031212 94.497719,64.095596 
	C94.863686,64.104691 95.229652,64.113785 95.702721,65.001060 
	C95.733467,66.330444 95.730133,67.661659 95.801140,68.988892 
	C96.043823,73.525002 97.280434,77.726585 101.721680,79.735588 
	C106.656853,81.968025 111.605286,81.516388 116.385361,78.552727 
	C115.388474,75.407295 114.495674,72.590271 113.513748,69.492043 
	C108.780594,71.282471 107.685867,68.870293 107.793755,64.930679 
	C107.888191,61.482273 107.813461,58.029236 107.813461,54.371101 
	C110.451721,54.187534 112.663887,54.033611 114.805206,53.884621 
	C114.805206,50.762917 114.805206,48.015965 114.805206,44.794762 
	C112.335922,44.794762 110.115486,44.794762 107.658257,44.794762 
	C107.658257,40.358799 107.658257,36.408894 107.658257,32.291294 
	C103.542137,32.291294 99.681305,32.291294 95.638702,32.291294 
	C95.638702,36.598583 95.638702,40.576180 95.638702,44.806179 
	C94.334328,44.806179 93.214439,44.806179 92.108818,43.895412 
M134.441940,65.387917 
	C135.163132,62.074337 135.884338,58.760757 136.650345,55.241325 
	C128.434052,55.241325 121.403206,55.241325 114.344955,55.241325 
	C114.344955,58.707531 114.344955,61.930996 114.344955,65.400505 
	C120.902206,65.400505 127.178452,65.400505 134.441940,65.387917 
M176.341415,33.637894 
	C178.582733,37.076393 181.848663,39.096024 185.488632,36.859131 
	C187.596039,35.564068 189.903183,32.092930 189.576721,29.997381 
	C189.202957,27.598078 186.387756,24.575659 183.961044,23.711287 
	C179.107681,21.982569 175.523575,26.506920 176.341415,33.637894 
z"/>
<path fill="#050505" opacity="1.000000" stroke="none" 
	d="
M93.951355,63.970093 
	C93.548950,64.031212 93.146545,64.092331 91.974953,64.135025 
	C83.910194,64.116608 76.614624,64.116608 69.291153,64.116608 
	C69.853767,70.173088 75.111656,73.724594 80.330978,70.583183 
	C84.645035,67.986633 87.807114,68.685226 91.581627,70.385178 
	C91.769852,71.672455 91.958069,72.959732 91.708969,74.700958 
	C86.490685,77.150375 81.709709,79.145844 76.928726,81.141312 
	C74.212532,80.850685 71.496346,80.560059 68.264343,79.905449 
	C64.134041,76.527000 60.519543,73.512520 57.179440,70.726891 
	C57.179440,73.847107 57.179440,77.472809 57.179440,81.098511 
	C55.936115,91.900101 51.077835,96.904732 40.250546,98.537384 
	C29.647173,100.136261 20.968357,96.407654 17.367077,88.483963 
	C19.841818,87.262932 22.328884,86.035820 25.383131,84.537018 
	C26.988348,84.812157 28.026382,85.358978 29.307344,86.200127 
	C38.603241,90.630348 45.157688,87.209633 44.577026,79.592529 
	C40.097427,80.119278 35.591114,80.649162 30.741915,81.025238 
	C24.629303,79.844078 20.918856,76.011978 17.682175,71.534599 
	C15.547356,64.862541 15.010934,58.287296 19.236145,51.499947 
	C26.836790,42.887852 33.968098,41.828957 43.999973,47.139263 
	C48.082176,43.148827 52.655354,45.788754 56.541721,45.008804 
	C57.059902,48.088833 57.445507,50.380840 57.981815,53.568626 
	C68.958511,42.247650 76.478607,41.344715 89.798843,48.672493 
	C90.565697,47.381004 91.330124,46.093594 92.094551,44.806179 
	C93.214439,44.806179 94.334328,44.806179 95.638702,44.806179 
	C95.638702,40.576180 95.638702,36.598583 95.638702,32.291294 
	C99.681305,32.291294 103.542137,32.291294 107.658257,32.291294 
	C107.658257,36.408894 107.658257,40.358799 107.658257,44.794762 
	C110.115486,44.794762 112.335922,44.794762 114.805206,44.794762 
	C114.805206,48.015965 114.805206,50.762917 114.805206,53.884621 
	C112.663887,54.033611 110.451721,54.187534 107.813461,54.371101 
	C107.813461,58.029236 107.888191,61.482273 107.793755,64.930679 
	C107.685867,68.870293 108.780594,71.282471 113.513748,69.492043 
	C114.495674,72.590271 115.388474,75.407295 116.385361,78.552727 
	C111.605286,81.516388 106.656853,81.968025 101.721680,79.735588 
	C97.280434,77.726585 96.043823,73.525002 95.801140,68.988892 
	C95.730133,67.661659 95.733467,66.330444 95.786674,64.119232 
	C95.987831,55.003422 95.987831,55.003422 93.361458,54.415813 
	C93.557793,57.595776 93.754578,60.782932 93.951355,63.970093 
M32.307819,69.304276 
	C33.708797,69.786705 35.081429,70.557472 36.515972,70.698502 
	C41.156559,71.154732 44.891819,67.703911 45.101387,63.001957 
	C45.318657,58.127182 41.879318,53.785786 37.358009,54.439381 
	C34.671963,54.827667 31.479242,56.722008 29.952150,58.932514 
	C27.707302,62.181995 28.686916,65.950569 32.307819,69.304276 
M80.739723,53.790691 
	C75.052002,50.615498 70.978416,51.782185 69.878082,57.112267 
	C71.205841,57.192581 72.501152,57.316280 73.798225,57.338860 
	C75.787636,57.373493 77.778267,57.332733 79.768364,57.334583 
	C82.212868,57.336861 82.828583,56.402897 80.739723,53.790691 
z"/>
<path fill="#070707" opacity="1.000000" stroke="none" 
	d="
M214.649567,55.141186 
	C204.977676,53.704372 202.761002,55.649792 202.752045,65.591072 
	C202.747879,70.219772 202.751343,74.848473 202.751343,79.738953 
	C198.625137,79.738953 194.864914,79.738953 190.875336,79.738953 
	C190.875336,68.325470 190.875336,56.893208 190.875336,45.223419 
	C194.724548,45.223419 198.482407,45.223419 202.475082,45.223419 
	C202.662323,46.396004 202.847519,47.555813 203.069321,48.944935 
	C210.527588,42.001873 220.790848,42.692993 221.097534,49.261429 
	C227.264404,44.626762 234.035126,42.109566 241.168945,44.999016 
	C245.077881,46.582275 248.214127,50.073246 251.960098,53.145050 
	C252.494843,53.458687 252.768280,53.331257 253.041718,53.203827 
	C258.496368,43.552711 267.112183,41.478394 279.282837,47.379215 
	C279.282837,38.600842 279.282837,30.124762 279.282837,21.439823 
	C283.569946,21.439823 287.183319,21.439823 291.180176,21.439823 
	C291.180176,40.809673 291.180176,60.188843 291.180176,80.186729 
	C287.146912,78.879288 282.363770,82.354782 279.347107,78.278801 
	C274.646484,79.144226 269.745117,81.236259 265.282837,80.534904 
	C260.783936,79.827789 256.720886,76.347237 252.111801,73.892723 
	C244.206085,81.360680 233.965042,83.400948 225.458511,78.563133 
	C217.509537,74.042419 214.413208,66.295929 217.106689,56.225876 
	C216.519943,55.483868 215.584763,55.312527 214.649567,55.141186 
M220.742249,49.856884 
	C220.670471,49.424950 220.598694,48.993015 220.526901,48.561081 
	C220.050583,49.029449 219.574280,49.497822 218.568771,50.297428 
	C218.412262,51.131252 218.255768,51.965076 218.099274,52.798908 
	C218.733398,51.923290 219.367508,51.047676 220.742249,49.856884 
M279.736267,63.262325 
	C278.973663,56.872608 275.480896,53.530773 270.396088,54.325832 
	C266.217010,54.979275 263.225922,58.403957 263.407196,62.636417 
	C263.591217,66.933899 265.745056,69.789642 270.117676,70.618332 
	C274.545715,71.457527 277.629547,69.279350 279.736267,63.262325 
M247.697052,69.116829 
	C248.965576,69.744942 250.234100,70.373055 252.162766,71.328026 
	C251.429657,68.456802 250.886185,66.328300 250.310364,64.073105 
	C243.511353,64.073105 237.022461,64.065552 230.533646,64.085121 
	C229.902985,64.087021 229.272827,64.256500 228.639755,64.348587 
	C229.677902,70.931206 235.860886,73.413017 241.798996,69.993858 
	C243.247498,69.159813 245.184723,69.174530 247.697052,69.116829 
M230.215103,57.547318 
	C234.077820,57.547318 237.940536,57.547318 242.067459,57.547318 
	C239.954453,52.488831 238.087326,51.195850 234.036438,51.950287 
	C231.188400,52.480701 228.576202,53.532852 230.215103,57.547318 
z"/>
<path fill="#A6A6A6" opacity="1.000000" stroke="none" 
	d="
M92.101685,44.350796 
	C91.330124,46.093594 90.565697,47.381004 89.798843,48.672493 
	C76.478607,41.344715 68.958511,42.247650 57.981815,53.568626 
	C57.445507,50.380840 57.059902,48.088833 56.541721,45.008804 
	C52.655354,45.788754 48.082176,43.148827 43.999973,47.139263 
	C33.968098,41.828957 26.836790,42.887852 19.318184,51.094322 
	C18.326485,49.910820 17.072784,48.679733 17.014465,47.394409 
	C16.781061,42.250210 17.031559,37.085865 16.880909,31.935472 
	C16.774391,28.293871 18.414944,26.761549 21.926123,26.791304 
	C26.581659,26.830757 31.246887,26.610395 35.890892,26.842718 
	C39.501614,27.023350 40.904259,25.886555 40.862076,22.073149 
	C40.772888,14.010883 40.963993,14.008539 49.029881,14.007946 
	C53.685844,14.007604 58.350723,14.186008 62.994999,13.953102 
	C66.844315,13.760063 68.408905,15.111649 68.278381,19.086992 
	C68.003609,27.455351 67.574112,26.761959 76.103470,26.786015 
	C79.927605,26.796799 83.751709,26.817694 87.575829,26.833179 
	C90.624947,26.845526 92.162285,28.270229 92.110291,31.424448 
	C92.041794,35.580318 92.103241,39.738323 92.101685,44.350796 
M59.288506,26.834515 
	C60.729721,26.732800 62.170933,26.631084 63.524223,26.535576 
	C64.691582,18.580120 64.353920,18.177336 56.901878,18.171181 
	C55.246223,18.169813 53.590569,18.169468 51.934914,18.171244 
	C44.662872,18.179043 44.114365,18.874422 45.679413,26.834286 
	C49.813923,26.834286 54.075932,26.834286 59.288506,26.834515 
z"/>
<path fill="#050505" opacity="1.000000" stroke="none" 
	d="
M174.896179,79.901611 
	C171.239807,79.901611 167.583450,79.901611 163.307983,79.901611 
	C163.307983,73.864311 163.347000,67.921707 163.296677,61.979851 
	C163.249329,56.389214 161.088470,53.436115 157.142410,53.387806 
	C152.844315,53.335186 149.991531,56.846947 149.961014,62.316563 
	C149.929459,67.972755 149.954010,73.629265 149.954010,79.645187 
	C146.106049,79.645187 142.368607,79.645187 138.261139,79.645187 
	C138.261139,60.528748 138.261139,41.155968 138.261139,21.500879 
	C141.972458,21.500879 145.703857,21.500879 149.744034,21.500879 
	C149.744034,30.247503 149.744034,38.857906 149.744034,46.644005 
	C154.607117,45.845173 159.300415,44.259289 163.879730,44.539093 
	C169.000381,44.851974 173.298706,47.749451 174.961182,54.051666 
	C174.936646,63.212803 174.916412,71.557205 174.896179,79.901611 
z"/>
<path fill="#070707" opacity="1.000000" stroke="none" 
	d="
M176.611786,53.800514 
	C176.611786,50.999153 176.611786,48.197796 176.611786,45.195084 
	C180.697968,45.195084 184.461639,45.195084 188.487457,45.195084 
	C188.487457,56.737625 188.487457,68.127251 188.487457,80.002014 
	C184.907303,80.002014 181.460815,80.002014 177.511780,79.488464 
	C176.876740,70.583443 176.744263,62.191978 176.611786,53.800514 
z"/>
<path fill="#020202" opacity="1.000000" stroke="none" 
	d="
M133.948318,65.394211 
	C127.178452,65.400505 120.902206,65.400505 114.344955,65.400505 
	C114.344955,61.930996 114.344955,58.707531 114.344955,55.241325 
	C121.403206,55.241325 128.434052,55.241325 136.650345,55.241325 
	C135.884338,58.760757 135.163132,62.074337 133.948318,65.394211 
z"/>
<path fill="#0B0B0B" opacity="1.000000" stroke="none" 
	d="
M176.194611,33.263340 
	C175.523575,26.506920 179.107681,21.982569 183.961044,23.711287 
	C186.387756,24.575659 189.202957,27.598078 189.576721,29.997381 
	C189.903183,32.092930 187.596039,35.564068 185.488632,36.859131 
	C181.848663,39.096024 178.582733,37.076393 176.194611,33.263340 
z"/>
<path fill="#9F9F9F" opacity="1.000000" stroke="none" 
	d="
M91.749878,69.975189 
	C87.807114,68.685226 84.645035,67.986633 80.330978,70.583183 
	C75.111656,73.724594 69.853767,70.173088 69.291153,64.116608 
	C76.614624,64.116608 83.910194,64.116608 91.676834,64.203400 
	C92.071312,66.048523 91.994728,67.806854 91.749878,69.975189 
z"/>
<path fill="#A0A0A0" opacity="1.000000" stroke="none" 
	d="
M29.064415,85.905792 
	C28.026382,85.358978 26.988348,84.812157 25.633797,84.295197 
	C24.584970,83.251961 23.816580,81.226654 23.125931,81.252823 
	C16.091984,81.519363 16.602198,77.011879 17.434702,71.946182 
	C20.918856,76.011978 24.629303,79.844078 30.758554,81.373238 
	C30.433525,83.218636 29.748970,84.562218 29.064415,85.905792 
z"/>
<path fill="#9F9F9F" opacity="1.000000" stroke="none" 
	d="
M57.619549,81.089767 
	C57.179440,77.472809 57.179440,73.847107 57.179440,70.726891 
	C60.519543,73.512520 64.134041,76.527000 67.865738,79.869492 
	C64.675179,80.492012 61.367420,80.786514 57.619549,81.089767 
z"/>
<path fill="#A6A6A6" opacity="1.000000" stroke="none" 
	d="
M77.034149,81.473389 
	C81.709709,79.145844 86.490685,77.150375 91.585617,75.020416 
	C92.600021,78.824463 91.587227,81.290062 86.955002,81.176582 
	C85.973976,81.152542 84.631599,81.977974 84.027840,82.821518 
	C81.167732,86.817535 79.520378,86.622833 77.034149,81.473389 
z"/>
<path fill="#969696" opacity="1.000000" stroke="none" 
	d="
M176.352966,53.788952 
	C176.744263,62.191978 176.876740,70.583443 177.059830,79.434296 
	C176.617813,79.922394 176.125183,79.951103 175.264374,79.940720 
	C174.916412,71.557205 174.936646,63.212803 175.030396,54.400345 
	C175.433975,53.880657 175.764069,53.829025 176.352966,53.788952 
z"/>
<path fill="#BCBCBC" opacity="1.000000" stroke="none" 
	d="
M94.224533,64.032845 
	C93.754578,60.782932 93.557793,57.595776 93.361458,54.415813 
	C95.987831,55.003422 95.987831,55.003422 95.733124,63.680138 
	C95.229652,64.113785 94.863686,64.104691 94.224533,64.032845 
z"/>
<path fill="#080808" opacity="1.000000" stroke="none" 
	d="
M214.950958,55.466339 
	C215.584763,55.312527 216.519943,55.483868 217.239105,55.770599 
	C216.432816,55.854496 215.842590,55.822994 214.950958,55.466339 
z"/>
<path fill="#080808" opacity="1.000000" stroke="none" 
	d="
M252.787384,53.350662 
	C252.768280,53.331257 252.494843,53.458687 252.091751,53.472832 
	C252.152405,53.405533 252.342712,53.451515 252.787384,53.350662 
z"/>
<path fill="#A1A1A1" opacity="1.000000" stroke="none" 
	d="
M31.990475,69.079880 
	C28.686916,65.950569 27.707302,62.181995 29.952150,58.932514 
	C31.479242,56.722008 34.671963,54.827667 37.358009,54.439381 
	C41.879318,53.785786 45.318657,58.127182 45.101387,63.001957 
	C44.891819,67.703911 41.156559,71.154732 36.515972,70.698502 
	C35.081429,70.557472 33.708797,69.786705 31.990475,69.079880 
z"/>
<path fill="#EDEDED" opacity="1.000000" stroke="none" 
	d="
M29.307343,86.200134 
	C29.748970,84.562218 30.433525,83.218636 31.101442,81.527054 
	C35.591114,80.649162 40.097427,80.119278 44.577026,79.592529 
	C45.157688,87.209633 38.603241,90.630348 29.307343,86.200134 
z"/>
<path fill="#C8C8C8" opacity="1.000000" stroke="none" 
	d="
M81.024384,54.074512 
	C82.828583,56.402897 82.212868,57.336861 79.768364,57.334583 
	C77.778267,57.332733 75.787636,57.373493 73.798225,57.338860 
	C72.501152,57.316280 71.205841,57.192581 69.878082,57.112267 
	C70.978416,51.782185 75.052002,50.615498 81.024384,54.074512 
z"/>
<path fill="#F5F5F5" opacity="1.000000" stroke="none" 
	d="
M279.677124,63.641769 
	C277.629547,69.279350 274.545715,71.457527 270.117676,70.618332 
	C265.745056,69.789642 263.591217,66.933899 263.407196,62.636417 
	C263.225922,58.403957 266.217010,54.979275 270.396088,54.325832 
	C275.480896,53.530773 278.973663,56.872608 279.677124,63.641769 
z"/>
<path fill="#EFEFEF" opacity="1.000000" stroke="none" 
	d="
M247.297150,68.957916 
	C245.184723,69.174530 243.247498,69.159813 241.798996,69.993858 
	C235.860886,73.413017 229.677902,70.931206 228.639755,64.348587 
	C229.272827,64.256500 229.902985,64.087021 230.533646,64.085121 
	C237.022461,64.065552 243.511353,64.073105 250.310364,64.073105 
	C250.886185,66.328300 251.429657,68.456802 252.162766,71.328026 
	C250.234100,70.373055 248.965576,69.744942 247.297150,68.957916 
z"/>
<path fill="#DCDCDC" opacity="1.000000" stroke="none" 
	d="
M229.804214,57.453056 
	C228.576202,53.532852 231.188400,52.480701 234.036438,51.950287 
	C238.087326,51.195850 239.954453,52.488831 242.067459,57.547318 
	C237.940536,57.547318 234.077820,57.547318 229.804214,57.453056 
z"/>
<path fill="#080808" opacity="1.000000" stroke="none" 
	d="
M220.001617,50.172058 
	C219.367508,51.047676 218.733398,51.923290 218.099274,52.798904 
	C218.255768,51.965076 218.412262,51.131252 219.063934,50.162865 
	C219.559097,50.028305 220.001617,50.172058 220.001617,50.172058 
z"/>
<path fill="#FDFDFD" opacity="1.000000" stroke="none" 
	d="
M220.371933,50.014473 
	C220.001617,50.172058 219.559097,50.028305 219.328537,49.997246 
	C219.574280,49.497822 220.050583,49.029449 220.526901,48.561081 
	C220.598694,48.993015 220.670471,49.424950 220.371933,50.014473 
z"/>
<path fill="#F6F6F6" opacity="1.000000" stroke="none" 
	d="
M58.813225,26.834400 
	C54.075932,26.834286 49.813923,26.834286 45.679413,26.834286 
	C44.114365,18.874422 44.662872,18.179043 51.934914,18.171244 
	C53.590569,18.169468 55.246223,18.169813 56.901878,18.171181 
	C64.353920,18.177336 64.691582,18.580120 63.524223,26.535576 
	C62.170933,26.631084 60.729721,26.732800 58.813225,26.834400 
z"/>
</svg>