<svg version="1.1" id="Layer_1" xmlns="http://www.w3.org/2000/svg" xmlns:xlink="http://www.w3.org/1999/xlink" x="0px" y="0px"
	 width="100%" viewBox="0 0 150 150" enable-background="new 0 0 500 500" xml:space="preserve">
<path fill="#FFFFFF" opacity="1.000000" stroke="none" 
	d="
M272.000000,501.000000 
	C181.333359,501.000000 91.166710,501.000000 1.000048,501.000000 
	C1.000032,334.333405 1.000032,167.666794 1.000016,1.000138 
	C167.666565,1.000092 334.333130,1.000092 500.999756,1.000046 
	C500.999847,167.666519 500.999847,334.333038 500.999939,500.999786 
	C424.833344,501.000000 348.666656,501.000000 272.000000,501.000000 
M272.091156,239.767410 
	C271.762817,239.821671 271.434479,239.875916 270.968750,239.231506 
	C269.303589,233.744751 265.002319,230.849503 259.884155,230.534241 
	C255.303680,230.252090 250.608124,231.838593 245.747253,232.636093 
	C245.747253,224.857498 245.747253,216.246216 245.747253,207.492584 
	C241.709961,207.492584 237.977997,207.492584 234.251007,207.492584 
	C234.251007,227.145187 234.251007,246.519089 234.251007,265.657410 
	C238.350586,265.657410 242.090607,265.657410 245.957626,265.657410 
	C245.957626,259.652771 245.933624,253.998062 245.964493,248.343658 
	C245.994476,242.852280 248.828186,239.351639 253.133148,239.400986 
	C257.073456,239.446152 259.244476,242.410858 259.291351,247.989746 
	C259.341248,253.930115 259.302582,259.871216 259.302582,265.903320 
	C263.585693,265.903320 267.242218,265.903320 271.632812,265.985992 
	C272.124115,265.956085 272.615417,265.926147 274.011017,266.006805 
	C277.459839,266.006805 280.908630,266.006805 284.493896,266.006805 
	C284.493896,254.130829 284.493896,242.736496 284.493896,231.188965 
	C280.464691,231.188965 276.698669,231.188965 272.606384,231.188965 
	C272.606384,234.190933 272.606384,236.992996 272.091156,239.767410 
M316.231903,234.640244 
	C317.217072,232.482971 316.423492,231.494003 314.222229,230.746414 
	C308.292267,228.732498 303.569031,230.809509 299.062134,235.285843 
	C298.833771,233.510895 298.681702,232.328888 298.546814,231.280518 
	C294.369843,231.280518 290.633667,231.280518 286.912476,231.280518 
	C286.912476,242.981384 286.912476,254.383774 286.912476,265.716461 
	C290.935028,265.716461 294.684998,265.716461 298.756012,265.716461 
	C298.756012,260.800476 298.752411,256.172668 298.756775,251.544830 
	C298.766144,241.638046 301.009399,239.685837 311.297363,241.846054 
	C311.543060,243.081085 312.102448,244.346573 311.986023,245.546463 
	C310.789154,257.882477 319.360474,267.138550 331.844635,267.031006 
	C338.871704,266.970490 344.586792,264.203735 348.063446,259.937408 
	C352.879303,262.495453 356.821686,265.896210 361.171295,266.538239 
	C365.661499,267.200989 370.547699,265.180939 375.355072,264.317627 
	C378.243500,268.479034 383.116425,264.804565 387.234833,266.271301 
	C387.234833,246.245285 387.234833,226.859863 387.234833,207.578888 
	C383.165222,207.578888 379.439789,207.578888 375.219696,207.578888 
	C375.219696,216.305237 375.219696,224.665436 375.219696,233.242142 
	C362.794373,227.559006 356.383209,229.057419 348.266602,239.336929 
	C344.661560,233.534134 339.484314,230.521500 332.683502,229.945175 
	C326.636169,229.432693 321.836517,232.171677 316.231903,234.640244 
M188.116150,229.893524 
	C188.113388,226.067307 187.885101,222.224274 188.168503,218.419373 
	C188.478973,214.250549 186.309723,212.573120 182.688110,212.352173 
	C178.875366,212.119568 174.999435,211.896164 171.224319,212.320328 
	C165.904358,212.918045 164.012421,210.929123 164.732162,205.729767 
	C165.313599,201.529541 163.440872,199.662491 159.002441,199.931625 
	C154.029999,200.233170 149.025208,199.999222 144.034485,200.001160 
	C136.426300,200.004120 136.238739,200.006866 136.310089,207.829620 
	C136.342712,211.407715 135.087967,212.471268 131.680084,212.291153 
	C127.367943,212.063217 123.027275,212.124405 118.710197,212.315796 
	C114.913902,212.484100 112.557129,214.059738 112.837395,218.532257 
	C113.148903,223.503448 112.771698,228.515671 113.007019,233.495270 
	C113.063690,234.694519 114.353661,235.835480 114.953362,237.730347 
	C111.046806,244.109543 111.477364,250.767838 113.176842,258.363434 
	C112.722282,262.915436 111.821175,267.675476 119.091476,267.258667 
	C119.771957,267.219666 120.571083,269.250366 120.813889,270.804993 
	C118.324059,272.032715 115.834229,273.260468 113.356598,274.482178 
	C116.979767,282.420349 125.668793,286.146729 136.276291,284.539398 
	C146.775452,282.948547 151.708755,278.100494 153.936371,267.719879 
	C157.633286,267.279907 161.330185,266.839935 165.900894,266.536804 
	C168.242615,266.739136 170.584320,266.941498 173.096802,267.845428 
	C175.333633,272.772949 176.917923,273.041992 180.062653,269.131439 
	C180.598022,268.465729 181.520630,267.696625 182.273438,267.686951 
	C187.739090,267.616852 188.821426,264.184692 188.943558,259.079834 
	C188.492065,258.179993 188.040588,257.280151 187.930862,255.563492 
	C188.003922,253.807312 188.076981,252.051117 188.759659,250.156891 
	C189.171478,250.097626 189.583282,250.038361 190.246552,250.424835 
	C190.684372,250.649521 191.122192,250.874207 191.694580,251.964676 
	C191.727524,257.417572 192.019638,262.967072 197.698105,265.713074 
	C202.593475,268.080383 207.586807,267.462952 212.396378,264.620331 
	C211.400024,261.435852 210.517578,258.615387 209.635132,255.794968 
	C209.268112,256.130157 208.901108,256.465332 208.534088,256.800537 
	C206.996201,255.539612 204.343307,254.440689 204.132126,252.987030 
	C203.529587,248.839554 203.920395,244.547760 203.920395,240.279541 
	C206.657715,240.156204 208.737976,240.062454 210.840393,239.967728 
	C210.840393,236.831009 210.840393,234.081558 210.840393,231.153244 
	C208.404816,231.022293 206.174896,230.902405 203.559845,230.761810 
	C203.559845,226.285187 203.559845,222.208054 203.559845,218.269470 
	C199.405228,218.269470 195.669052,218.269470 191.705826,218.269470 
	C191.705826,221.724670 191.536865,224.884811 191.753906,228.018219 
	C191.966202,231.082993 190.389542,231.289658 188.116150,229.893524 
M220.535034,251.412247 
	C224.291794,251.412247 228.048569,251.412247 231.738556,251.412247 
	C231.738556,247.641281 231.738556,244.418152 231.738556,241.255585 
	C224.392929,241.255585 217.356888,241.255585 210.371567,241.255585 
	C210.371567,244.715271 210.371567,247.915222 210.371567,251.412201 
	C213.644058,251.412201 216.606659,251.412201 220.535034,251.412247 
M281.474670,209.906891 
	C276.241699,208.940659 272.732544,210.791473 271.887970,214.963135 
	C271.074158,218.982620 273.463379,222.751297 277.468475,223.490692 
	C280.976013,224.138229 283.655212,222.727539 285.184845,219.540100 
	C287.095337,215.559097 285.537994,212.545410 281.474670,209.906891 
z"/>
<path fill="#050505" opacity="1.000000" stroke="none" 
	d="
M187.589111,256.380310 
	C188.040588,257.280151 188.492065,258.179993 188.504578,259.538330 
	C184.332535,265.161438 178.774734,266.460724 172.926041,267.143860 
	C170.584320,266.941498 168.242615,266.739136 165.256454,266.232910 
	C161.067245,263.436554 157.522491,260.944092 153.067322,257.811462 
	C153.067322,261.659851 153.067322,264.849243 153.067322,268.038635 
	C151.708755,278.100494 146.775452,282.948547 136.276291,284.539398 
	C125.668793,286.146729 116.979767,282.420349 113.356598,274.482178 
	C115.834229,273.260468 118.324059,272.032715 121.381485,270.534851 
	C122.988419,270.810760 124.027756,271.356781 125.310333,272.196533 
	C134.585556,276.620483 141.134186,273.218414 140.582947,265.611877 
	C136.103531,266.133179 131.595703,266.657776 126.745148,267.027588 
	C120.630974,265.848022 116.924324,262.008240 113.678558,257.540070 
	C111.477364,250.767838 111.046806,244.109543 115.339630,237.281738 
	C123.114403,228.830719 129.125275,227.988831 139.692642,232.876114 
	C144.277740,229.542923 148.694717,231.607422 152.558441,231.017548 
	C153.034546,233.991852 153.407639,236.322601 153.910797,239.465897 
	C165.522446,228.159546 172.550842,227.319504 185.790237,234.680939 
	C186.560593,233.386169 187.328812,232.095001 188.097031,230.803833 
	C190.389542,231.289658 191.966202,231.082993 191.753906,228.018219 
	C191.536865,224.884811 191.705826,221.724670 191.705826,218.269470 
	C195.669052,218.269470 199.405228,218.269470 203.559845,218.269470 
	C203.559845,222.208054 203.559845,226.285187 203.559845,230.761810 
	C206.174896,230.902405 208.404816,231.022293 210.840393,231.153244 
	C210.840393,234.081558 210.840393,236.831009 210.840393,239.967728 
	C208.737976,240.062454 206.657715,240.156204 203.920395,240.279541 
	C203.920395,244.547760 203.529587,248.839554 204.132126,252.987030 
	C204.343307,254.440689 206.996201,255.539612 208.534088,256.800537 
	C208.901108,256.465332 209.268112,256.130157 209.635132,255.794968 
	C210.517578,258.615387 211.400024,261.435852 212.396378,264.620331 
	C207.586807,267.462952 202.593475,268.080383 197.698105,265.713074 
	C192.019638,262.967072 191.727524,257.417572 191.760864,251.085632 
	C191.944992,240.765915 191.944992,240.765915 189.458542,240.662704 
	C189.636337,243.749725 189.815720,246.864395 189.995087,249.979095 
	C189.583282,250.038361 189.171478,250.097626 187.983765,250.138474 
	C179.912231,250.120056 172.616608,250.120056 165.292725,250.120056 
	C165.861832,256.175385 171.129837,259.729462 176.337250,256.576569 
	C180.657059,253.961060 183.815857,254.704788 187.589111,256.380310 
M141.033310,250.093155 
	C139.951370,247.324921 139.550995,242.998459 137.626450,242.156693 
	C134.798553,240.919785 130.388382,241.237686 127.609558,242.705475 
	C125.872658,243.622910 125.148270,247.916626 125.310562,250.614624 
	C125.532059,254.296783 128.538193,256.348541 132.164215,256.667786 
	C136.452820,257.045380 139.485291,255.077896 141.033310,250.093155 
M175.839188,243.319641 
	C178.412704,243.298691 179.050903,241.784439 177.153854,240.436035 
	C175.309433,239.125046 172.662277,238.140442 170.488327,238.338379 
	C168.591187,238.511093 166.862137,240.529938 165.058823,241.733124 
	C165.289520,242.265213 165.520203,242.797287 165.750900,243.329376 
	C168.835739,243.329376 171.920578,243.329376 175.839188,243.319641 
M153.695557,255.727844 
	C153.556931,256.389709 153.405197,257.049774 153.312088,257.717987 
	C153.306458,257.758331 153.767685,257.863739 154.011688,257.938873 
	C154.023148,257.405609 154.034622,256.872345 153.695557,255.727844 
z"/>
<path fill="#080808" opacity="1.000000" stroke="none" 
	d="
M317.016174,235.102219 
	C321.836517,232.171677 326.636169,229.432693 332.683502,229.945175 
	C339.484314,230.521500 344.661560,233.534134 348.266602,239.336929 
	C356.383209,229.057419 362.794373,227.559006 375.219696,233.242142 
	C375.219696,224.665436 375.219696,216.305237 375.219696,207.578888 
	C379.439789,207.578888 383.165222,207.578888 387.234833,207.578888 
	C387.234833,226.859863 387.234833,246.245285 387.234833,266.271301 
	C383.116425,264.804565 378.243500,268.479034 375.355072,264.317627 
	C370.547699,265.180939 365.661499,267.200989 361.171295,266.538239 
	C356.821686,265.896210 352.879303,262.495453 348.063446,259.937408 
	C344.586792,264.203735 338.871704,266.970490 331.844635,267.031006 
	C319.360474,267.138550 310.789154,257.882477 311.986023,245.546463 
	C312.102448,244.346573 311.543060,243.081085 311.311798,241.353668 
	C312.584137,239.228973 313.842041,237.596664 315.441345,235.983017 
	C316.207336,235.657639 316.631927,235.313614 317.047028,235.002930 
	C317.037537,235.036270 317.016174,235.102219 317.016174,235.102219 
M370.488739,256.175476 
	C374.234436,254.755981 376.277527,251.721512 375.541901,248.090179 
	C375.023224,245.530136 373.022247,242.064987 370.892273,241.345673 
	C368.301788,240.470856 363.750031,241.036011 362.118317,242.845901 
	C360.267792,244.898514 359.624054,249.320663 360.415436,252.167877 
	C361.551971,256.256775 365.540894,257.365570 370.488739,256.175476 
M336.601410,256.661591 
	C337.935242,255.716019 339.269073,254.770462 340.687988,253.764587 
	C343.009735,254.834534 345.305695,255.892593 348.191498,257.222473 
	C347.434265,254.408066 346.863159,252.285492 346.317139,250.256165 
	C338.868439,250.256165 331.794281,250.256165 324.699738,250.256165 
	C325.479095,256.465576 327.934326,257.905273 336.601410,256.661591 
M325.399658,243.357925 
	C329.552277,243.357925 333.704895,243.357925 337.857483,243.357925 
	C338.064270,242.721771 338.271057,242.085602 338.477814,241.449448 
	C336.104523,240.242477 333.837616,238.415085 331.331055,237.985168 
	C328.178253,237.444427 325.532593,238.981094 325.399658,243.357925 
z"/>
<path fill="#A6A6A6" opacity="1.000000" stroke="none" 
	d="
M188.106598,230.348679 
	C187.328812,232.095001 186.560593,233.386169 185.790237,234.680939 
	C172.550842,227.319504 165.522446,228.159546 153.910797,239.465897 
	C153.407639,236.322601 153.034546,233.991852 152.558441,231.017548 
	C148.694717,231.607422 144.277740,229.542923 139.692642,232.876114 
	C129.125275,227.988831 123.114403,228.830719 115.401176,236.918182 
	C114.353661,235.835480 113.063690,234.694519 113.007019,233.495270 
	C112.771698,228.515671 113.148903,223.503448 112.837395,218.532257 
	C112.557129,214.059738 114.913902,212.484100 118.710197,212.315796 
	C123.027275,212.124405 127.367943,212.063217 131.680084,212.291153 
	C135.087967,212.471268 136.342712,211.407715 136.310089,207.829620 
	C136.238739,200.006866 136.426300,200.004120 144.034485,200.001160 
	C149.025208,199.999222 154.029999,200.233170 159.002441,199.931625 
	C163.440872,199.662491 165.313599,201.529541 164.732162,205.729767 
	C164.012421,210.929123 165.904358,212.918045 171.224319,212.320328 
	C174.999435,211.896164 178.875366,212.119568 182.688110,212.352173 
	C186.309723,212.573120 188.478973,214.250549 188.168503,218.419373 
	C187.885101,222.224274 188.113388,226.067307 188.106598,230.348679 
M160.030991,207.726089 
	C158.804062,206.542877 157.726608,204.618851 156.318283,204.334717 
	C153.607559,203.787796 150.709579,204.163788 147.889267,204.166122 
	C140.652878,204.172119 140.051102,204.952179 141.725555,212.839767 
	C146.369354,212.839767 151.149719,212.666870 155.910355,212.899002 
	C159.223129,213.060547 160.527191,211.843964 160.030991,207.726089 
z"/>
<path fill="#050505" opacity="1.000000" stroke="none" 
	d="
M270.898773,265.903320 
	C267.242218,265.903320 263.585693,265.903320 259.302582,265.903320 
	C259.302582,259.871216 259.341248,253.930115 259.291351,247.989746 
	C259.244476,242.410858 257.073456,239.446152 253.133148,239.400986 
	C248.828186,239.351639 245.994476,242.852280 245.964493,248.343658 
	C245.933624,253.998062 245.957626,259.652771 245.957626,265.657410 
	C242.090607,265.657410 238.350586,265.657410 234.251007,265.657410 
	C234.251007,246.519089 234.251007,227.145187 234.251007,207.492584 
	C237.977997,207.492584 241.709961,207.492584 245.747253,207.492584 
	C245.747253,216.246216 245.747253,224.857498 245.747253,232.636093 
	C250.608124,231.838593 255.303680,230.252090 259.884155,230.534241 
	C265.002319,230.849503 269.303589,233.744751 270.962738,240.048874 
	C270.937408,249.211929 270.918091,257.557617 270.898773,265.903320 
z"/>
<path fill="#070707" opacity="1.000000" stroke="none" 
	d="
M315.099915,235.964355 
	C313.842041,237.596664 312.584137,239.228973 311.002136,241.011536 
	C301.009399,239.685837 298.766144,241.638046 298.756775,251.544830 
	C298.752411,256.172668 298.756012,260.800476 298.756012,265.716461 
	C294.684998,265.716461 290.935028,265.716461 286.912476,265.716461 
	C286.912476,254.383774 286.912476,242.981384 286.912476,231.280518 
	C290.633667,231.280518 294.369843,231.280518 298.546814,231.280518 
	C298.681702,232.328888 298.833771,233.510895 299.062134,235.285843 
	C303.569031,230.809509 308.292267,228.732498 314.222229,230.746414 
	C316.423492,231.494003 317.217072,232.482971 316.624023,234.871231 
	C317.016174,235.102219 317.037537,235.036270 316.786072,234.715683 
	C316.056396,234.918182 315.578156,235.441269 315.099915,235.964355 
z"/>
<path fill="#080808" opacity="1.000000" stroke="none" 
	d="
M272.606384,239.795059 
	C272.606384,236.992996 272.606384,234.190933 272.606384,231.188965 
	C276.698669,231.188965 280.464691,231.188965 284.493896,231.188965 
	C284.493896,242.736496 284.493896,254.130829 284.493896,266.006805 
	C280.908630,266.006805 277.459839,266.006805 273.508881,265.491882 
	C272.873291,256.583008 272.739838,248.189041 272.606384,239.795059 
z"/>
<path fill="#020202" opacity="1.000000" stroke="none" 
	d="
M220.052155,251.412231 
	C216.606659,251.412201 213.644058,251.412201 210.371567,251.412201 
	C210.371567,247.915222 210.371567,244.715271 210.371567,241.255585 
	C217.356888,241.255585 224.392929,241.255585 231.738556,241.255585 
	C231.738556,244.418152 231.738556,247.641281 231.738556,251.412247 
	C228.048569,251.412247 224.291794,251.412247 220.052155,251.412231 
z"/>
<path fill="#0B0B0B" opacity="1.000000" stroke="none" 
	d="
M281.827087,210.043961 
	C285.537994,212.545410 287.095337,215.559097 285.184845,219.540100 
	C283.655212,222.727539 280.976013,224.138229 277.468475,223.490692 
	C273.463379,222.751297 271.074158,218.982620 271.887970,214.963135 
	C272.732544,210.791473 276.241699,208.940659 281.827087,210.043961 
z"/>
<path fill="#A0A0A0" opacity="1.000000" stroke="none" 
	d="
M187.759979,255.971893 
	C183.815857,254.704788 180.657059,253.961060 176.337250,256.576569 
	C171.129837,259.729462 165.861832,256.175385 165.292725,250.120056 
	C172.616608,250.120056 179.912231,250.120056 187.678955,250.207489 
	C188.076981,252.051117 188.003922,253.807312 187.759979,255.971893 
z"/>
<path fill="#A0A0A0" opacity="1.000000" stroke="none" 
	d="
M125.067093,271.902802 
	C124.027756,271.356781 122.988419,270.810760 121.632103,270.292419 
	C120.571083,269.250366 119.771957,267.219666 119.091476,267.258667 
	C111.821175,267.675476 112.722282,262.915436 113.427704,257.951752 
	C116.924324,262.008240 120.630974,265.848022 126.764336,267.375488 
	C126.439857,269.219727 125.753471,270.561279 125.067093,271.902802 
z"/>
<path fill="#A6A6A6" opacity="1.000000" stroke="none" 
	d="
M173.011414,267.494629 
	C178.774734,266.460724 184.332535,265.161438 188.369339,259.848755 
	C188.821426,264.184692 187.739090,267.616852 182.273438,267.686951 
	C181.520630,267.696625 180.598022,268.465729 180.062653,269.131439 
	C176.917923,273.041992 175.333633,272.772949 173.011414,267.494629 
z"/>
<path fill="#A6A6A6" opacity="1.000000" stroke="none" 
	d="
M153.501846,267.879272 
	C153.067322,264.849243 153.067322,261.659851 153.067322,257.811462 
	C157.522491,260.944092 161.067245,263.436554 164.819550,266.164490 
	C161.330185,266.839935 157.633286,267.279907 153.501846,267.879272 
z"/>
<path fill="#969696" opacity="1.000000" stroke="none" 
	d="
M272.348755,239.781235 
	C272.739838,248.189041 272.873291,256.583008 273.056732,265.436615 
	C272.615417,265.926147 272.124115,265.956085 271.265808,265.944641 
	C270.918091,257.557617 270.937408,249.211929 271.031433,240.398209 
	C271.434479,239.875916 271.762817,239.821671 272.348755,239.781235 
z"/>
<path fill="#CCCCCC" opacity="1.000000" stroke="none" 
	d="
M190.120819,250.201965 
	C189.815720,246.864395 189.636337,243.749725 189.458542,240.662704 
	C191.944992,240.765915 191.944992,240.765915 191.693573,250.652740 
	C191.122192,250.874207 190.684372,250.649521 190.120819,250.201965 
z"/>
<path fill="#A0A0A0" opacity="1.000000" stroke="none" 
	d="
M140.974533,250.496017 
	C139.485291,255.077896 136.452820,257.045380 132.164215,256.667786 
	C128.538193,256.348541 125.532059,254.296783 125.310562,250.614624 
	C125.148270,247.916626 125.872658,243.622910 127.609558,242.705475 
	C130.388382,241.237686 134.798553,240.919785 137.626450,242.156693 
	C139.550995,242.998459 139.951370,247.324921 140.974533,250.496017 
z"/>
<path fill="#EFEFEF" opacity="1.000000" stroke="none" 
	d="
M125.310333,272.196533 
	C125.753471,270.561279 126.439857,269.219727 127.107056,267.530304 
	C131.595703,266.657776 136.103531,266.133179 140.582947,265.611877 
	C141.134186,273.218414 134.585556,276.620483 125.310333,272.196533 
z"/>
<path fill="#CCCCCC" opacity="1.000000" stroke="none" 
	d="
M175.422302,243.324509 
	C171.920578,243.329376 168.835739,243.329376 165.750900,243.329376 
	C165.520203,242.797287 165.289520,242.265213 165.058823,241.733124 
	C166.862137,240.529938 168.591187,238.511093 170.488327,238.338379 
	C172.662277,238.140442 175.309433,239.125046 177.153854,240.436035 
	C179.050903,241.784439 178.412704,243.298691 175.422302,243.324509 
z"/>
<path fill="#A0A0A0" opacity="1.000000" stroke="none" 
	d="
M153.870819,256.033447 
	C154.034622,256.872345 154.023148,257.405609 154.011688,257.938873 
	C153.767685,257.863739 153.306458,257.758331 153.312088,257.717987 
	C153.405197,257.049774 153.556931,256.389709 153.870819,256.033447 
z"/>
<path fill="#F5F5F5" opacity="1.000000" stroke="none" 
	d="
M370.124756,256.292725 
	C365.540894,257.365570 361.551971,256.256775 360.415436,252.167877 
	C359.624054,249.320663 360.267792,244.898514 362.118317,242.845901 
	C363.750031,241.036011 368.301788,240.470856 370.892273,241.345673 
	C373.022247,242.064987 375.023224,245.530136 375.541901,248.090179 
	C376.277527,251.721512 374.234436,254.755981 370.124756,256.292725 
z"/>
<path fill="#EFEFEF" opacity="1.000000" stroke="none" 
	d="
M336.209595,256.803162 
	C327.934326,257.905273 325.479095,256.465576 324.699738,250.256165 
	C331.794281,250.256165 338.868439,250.256165 346.317139,250.256165 
	C346.863159,252.285492 347.434265,254.408066 348.191498,257.222473 
	C345.305695,255.892593 343.009735,254.834534 340.687988,253.764587 
	C339.269073,254.770462 337.935242,255.716019 336.209595,256.803162 
z"/>
<path fill="#DCDCDC" opacity="1.000000" stroke="none" 
	d="
M325.174316,243.004959 
	C325.532593,238.981094 328.178253,237.444427 331.331055,237.985168 
	C333.837616,238.415085 336.104523,240.242477 338.477814,241.449448 
	C338.271057,242.085602 338.064270,242.721771 337.857483,243.357925 
	C333.704895,243.357925 329.552277,243.357925 325.174316,243.004959 
z"/>
<path fill="#FFFFFF" opacity="1.000000" stroke="none" 
	d="
M315.441345,235.983002 
	C315.578156,235.441269 316.056396,234.918182 316.795593,234.682343 
	C316.631927,235.313614 316.207336,235.657639 315.441345,235.983002 
z"/>
<path fill="#F5F5F5" opacity="1.000000" stroke="none" 
	d="
M160.033829,208.170746 
	C160.527191,211.843964 159.223129,213.060547 155.910355,212.899002 
	C151.149719,212.666870 146.369354,212.839767 141.725555,212.839767 
	C140.051102,204.952179 140.652878,204.172119 147.889267,204.166122 
	C150.709579,204.163788 153.607559,203.787796 156.318283,204.334717 
	C157.726608,204.618851 158.804062,206.542877 160.033829,208.170746 
z"/>
</svg>